<svg width="89" height="47" viewBox="0 0 89 47" fill="none" xmlns="http://www.w3.org/2000/svg">
<rect x="3" y="3" width="83" height="25" rx="5" fill="#FF9335"/>
<path d="M15.8186 24L23.0906 6.96H25.7306L32.7146 24H29.5466L28.0106 20.112H20.5706L18.9866 24H15.8186ZM21.6506 17.496H27.0026L24.3626 10.8L21.6506 17.496ZM34.334 24V6.96H39.398C42.71 6.96 45.214 7.672 46.91 9.096C48.606 10.52 49.454 12.624 49.454 15.408C49.454 17.136 49.078 18.648 48.326 19.944C47.574 21.224 46.51 22.224 45.134 22.944C43.758 23.648 42.142 24 40.286 24H34.334ZM37.454 21.24H40.166C42.166 21.24 43.686 20.76 44.726 19.8C45.766 18.824 46.286 17.4 46.286 15.528C46.286 13.576 45.75 12.12 44.678 11.16C43.622 10.2 41.998 9.72 39.806 9.72H37.454V21.24ZM52.1912 24L52.8392 6.96H55.5512L61.7912 20.088L68.0072 6.96H70.7192L71.2472 24H68.2472L67.9112 13.392L62.8472 24H60.4952L55.5032 13.464L55.0712 24H52.1912Z" fill="#FBFBFB"/>
</svg>
