<svg width="90" height="60" viewBox="0 0 90 60" fill="none" xmlns="http://www.w3.org/2000/svg">
<path d="M0 30C0 13.4315 13.4315 0 30 0H60C76.5685 0 90 13.4315 90 30V30C90 46.5685 76.5685 60 60 60H30C13.4315 60 0 46.5685 0 30V30Z" fill="#FF9335"/>
<path fill-rule="evenodd" clip-rule="evenodd" d="M65.3723 10.5003C56.5353 1.83324 42.1667 1.83324 33.3297 10.5003C24.8975 18.7704 24.5467 32.0025 32.2369 40.7225L20.4857 52.2477C19.8381 52.8829 19.8381 53.9017 20.4857 54.5236C20.8095 54.8412 21.2277 55 21.646 55C22.0642 55 22.4825 54.8412 22.8063 54.5236L34.5574 42.9984C38.7938 46.5976 44.069 48.4104 49.3577 48.4104C55.1591 48.4104 60.9605 46.2403 65.3723 41.9134C74.2092 33.2596 74.2092 19.1541 65.3723 10.5003ZM63.0517 39.6376C55.4964 47.0476 43.219 47.0476 35.6637 39.6376C28.1084 32.2276 28.1084 20.1863 35.6637 12.7763C39.4414 9.07131 44.3928 7.21881 49.3577 7.21881C54.3226 7.21881 59.274 9.07131 63.0517 12.7763C70.5935 20.1863 70.5935 32.2276 63.0517 39.6376Z" fill="white"/>
</svg>
