<svg width="134" height="103" viewBox="0 0 134 103" fill="none" xmlns="http://www.w3.org/2000/svg">
<path fill-rule="evenodd" clip-rule="evenodd" d="M94.9757 46.258H46.3426C44.1026 46.258 42.294 44.5348 42.294 42.4005C42.294 40.2663 44.1026 38.543 46.3426 38.543C46.3426 38.543 46.3426 38.543 46.3592 38.543H90.197C91.1926 38.543 92.0222 37.8632 92.1881 36.9305L96.9668 9.94404C97.0664 9.39072 96.9005 8.82158 96.5188 8.37892C96.1372 7.95207 95.573 7.69912 94.9757 7.69912H43.9533L43.0241 1.64417C42.8747 0.695608 42.0285 0 41.0164 0H28.0243C26.9126 0 26 0.869511 26 1.92873C26 2.98795 26.9126 3.85747 28.0243 3.85747H39.2575L44.0694 35.0334C40.7177 35.9819 38.2454 38.9067 38.2454 42.4005C38.2454 46.6532 41.8792 50.1154 46.3426 50.1154H52.5317C50.2751 51.2695 48.7154 53.5302 48.7154 56.1388C48.7154 59.9172 51.9509 63 55.9166 63C59.8988 63 63.1178 59.9172 63.1178 56.1388C63.1178 53.5302 61.5581 51.2853 59.3015 50.1154H79.2459C76.9893 51.2695 75.4295 53.5302 75.4295 56.1388C75.4295 59.9172 78.6651 63 82.6308 63C86.613 63 89.832 59.9172 89.832 56.1388C89.832 53.5302 88.2723 51.2853 86.0157 50.1154H94.9757C96.0874 50.1154 97 49.2459 97 48.1867C97 47.1275 96.104 46.258 94.9757 46.258ZM92.5863 11.5566L88.488 34.6856H48.118L44.5506 11.5566H92.5863ZM55.9166 59.1268C54.1743 59.1268 52.764 57.783 52.764 56.123C52.764 54.463 54.1743 53.1193 55.9166 53.1193C57.6588 53.1193 59.0692 54.463 59.0692 56.123C59.0692 57.783 57.6588 59.1268 55.9166 59.1268ZM82.6307 59.1268C80.8885 59.1268 79.4781 57.783 79.4781 56.123C79.4781 54.463 80.8885 53.1193 82.6307 53.1193C84.373 53.1193 85.7833 54.463 85.7833 56.123C85.7833 57.783 84.373 59.1268 82.6307 59.1268Z" fill="#FBFBFB"/>
<path d="M20.2858 76.072C20.2858 76.2213 20.2324 76.3707 20.1258 76.52C20.0404 76.648 19.9231 76.712 19.7738 76.712C19.4111 76.712 19.1764 76.4987 19.0698 76.072C18.6858 74.6427 17.9711 73.5227 16.9258 72.712C15.8804 71.9013 14.6431 71.496 13.2138 71.496C10.6324 71.496 8.57375 72.3813 7.03775 74.152C5.52308 75.9227 4.76575 78.184 4.76575 80.936C4.76575 83.688 5.56575 86.1413 7.16575 88.296C8.78708 90.4507 10.8031 91.528 13.2138 91.528C14.6004 91.528 15.6351 91.4 16.3178 91.144C17.0218 90.8667 17.4911 90.6747 17.7257 90.568C17.9818 90.44 18.3018 90.248 18.6858 89.992C19.0698 89.736 19.2831 89.5973 19.3258 89.576C19.7098 89.3413 19.9764 89.3093 20.1258 89.48C20.2751 89.6293 20.3498 89.7787 20.3498 89.928C20.3498 90.0773 20.2644 90.2373 20.0938 90.408C19.3684 91.2187 18.6218 91.8267 17.8538 92.232C16.4671 92.9787 14.8138 93.352 12.8938 93.352C9.56575 93.352 6.86708 92.2533 4.79775 90.056C2.72842 87.8587 1.69375 85.096 1.69375 81.768C1.69375 78.44 2.74975 75.688 4.86175 73.512C6.97375 71.336 9.75775 70.248 13.2138 70.248C15.0058 70.248 16.6271 70.4933 18.0778 70.984C19.5498 71.4747 20.2858 71.9547 20.2858 72.424V76.072ZM37.9695 92.84C37.9695 93.1813 37.5855 93.352 36.8175 93.352C35.4948 93.352 34.3748 92.8293 33.4575 91.784C33.3082 91.6347 33.1908 91.56 33.1055 91.56C33.0415 91.56 32.9348 91.624 32.7855 91.752C31.3988 92.8187 29.8415 93.352 28.1135 93.352C26.8975 93.352 25.8308 92.9787 24.9135 92.232C23.9962 91.464 23.5375 90.4827 23.5375 89.288C23.5375 87.7733 24.1988 86.6213 25.5215 85.832C26.6948 85.1493 28.5295 84.616 31.0255 84.232C31.6228 84.1253 32.0282 84.0507 32.2415 84.008C32.5188 83.9867 32.6575 83.8373 32.6575 83.56V80.616C32.6575 79.7413 32.3588 79.048 31.7615 78.536C31.1855 78.024 30.4068 77.768 29.4255 77.768C28.4655 77.768 27.5908 78.0667 26.8015 78.664C26.0335 79.2613 25.5428 80.0933 25.3295 81.16C25.2655 81.48 25.0842 81.64 24.7855 81.64C24.5082 81.64 24.3695 81.48 24.3695 81.16V78.76C24.3695 78.3973 24.4868 78.1307 24.7215 77.96C25.8522 77.0853 27.4735 76.648 29.5855 76.648C31.6975 76.648 33.1802 77.1067 34.0335 78.024C34.8868 78.9413 35.3135 80.1253 35.3135 81.576V90.12C35.3135 90.8027 35.5268 91.3573 35.9535 91.784C36.4015 92.2107 36.9242 92.424 37.5215 92.424C37.8202 92.424 37.9695 92.5627 37.9695 92.84ZM32.5935 89.864V85.864C32.5935 85.544 32.4548 85.384 32.1775 85.384C32.1562 85.384 32.1242 85.384 32.0815 85.384C28.2628 85.8533 26.3535 87.0267 26.3535 88.904C26.3535 89.7787 26.6415 90.472 27.2175 90.984C27.7935 91.4747 28.4335 91.72 29.1375 91.72C29.8628 91.72 30.4922 91.5813 31.0255 91.304C31.5802 91.0267 31.9748 90.7493 32.2095 90.472C32.4655 90.1947 32.5935 89.992 32.5935 89.864ZM43.6573 76.648C43.9986 76.648 44.1693 76.8933 44.1693 77.384V79.112C44.1693 79.2187 44.2119 79.272 44.2973 79.272C44.3826 79.272 44.4786 79.208 44.5853 79.08C45.0759 78.4613 45.7479 77.9067 46.6013 77.416C47.4759 76.904 48.2439 76.648 48.9053 76.648C49.5879 76.648 50.1106 76.7227 50.4733 76.872C50.8359 77.0213 51.0173 77.192 51.0173 77.384V79.848C51.0173 80.168 50.8679 80.328 50.5693 80.328C50.3986 80.328 50.1746 80.168 49.8973 79.848C49.2999 79.1227 48.5213 78.76 47.5613 78.76C46.6226 78.76 45.8226 79.208 45.1613 80.104C44.4999 81 44.1693 82.2907 44.1693 83.976V90.888C44.1693 91.656 44.7346 92.0827 45.8653 92.168L47.1773 92.264C47.4333 92.2853 47.5613 92.4347 47.5613 92.712C47.5613 92.9893 47.4013 93.128 47.0813 93.128L42.8573 93L39.4013 93.128C39.0813 93.128 38.9213 92.9893 38.9213 92.712C38.9213 92.4347 39.0493 92.2853 39.3053 92.264L40.2013 92.2C40.6279 92.1573 40.9799 92.0293 41.2573 91.816C41.5346 91.5813 41.6733 91.272 41.6733 90.888V79.176C41.6733 78.7493 41.5773 78.4613 41.3853 78.312C41.2146 78.1413 40.9266 78.056 40.5213 78.056H39.4333C39.1559 78.056 39.0173 77.9173 39.0173 77.64C39.0173 77.3627 39.1559 77.2027 39.4333 77.16L43.5933 76.648C43.6146 76.648 43.6359 76.648 43.6573 76.648ZM56.7198 76.648C57.0611 76.648 57.2318 76.8933 57.2318 77.384V79.112C57.2318 79.2187 57.2744 79.272 57.3598 79.272C57.4451 79.272 57.5411 79.208 57.6478 79.08C58.1384 78.4613 58.8104 77.9067 59.6638 77.416C60.5384 76.904 61.3064 76.648 61.9678 76.648C62.6504 76.648 63.1731 76.7227 63.5358 76.872C63.8984 77.0213 64.0798 77.192 64.0798 77.384V79.848C64.0798 80.168 63.9304 80.328 63.6318 80.328C63.4611 80.328 63.2371 80.168 62.9598 79.848C62.3624 79.1227 61.5838 78.76 60.6238 78.76C59.6851 78.76 58.8851 79.208 58.2238 80.104C57.5624 81 57.2318 82.2907 57.2318 83.976V90.888C57.2318 91.656 57.7971 92.0827 58.9278 92.168L60.2398 92.264C60.4958 92.2853 60.6238 92.4347 60.6238 92.712C60.6238 92.9893 60.4638 93.128 60.1438 93.128L55.9198 93L52.4638 93.128C52.1438 93.128 51.9838 92.9893 51.9838 92.712C51.9838 92.4347 52.1118 92.2853 52.3678 92.264L53.2638 92.2C53.6904 92.1573 54.0424 92.0293 54.3198 91.816C54.5971 91.5813 54.7358 91.272 54.7358 90.888V79.176C54.7358 78.7493 54.6398 78.4613 54.4478 78.312C54.2771 78.1413 53.9891 78.056 53.5838 78.056H52.4958C52.2184 78.056 52.0798 77.9173 52.0798 77.64C52.0798 77.3627 52.2184 77.2027 52.4958 77.16L56.6558 76.648C56.6771 76.648 56.6984 76.648 56.7198 76.648ZM72.1183 92.264C72.3743 92.2853 72.5023 92.4347 72.5023 92.712C72.5023 92.9893 72.3423 93.128 72.0223 93.128L68.9823 93L65.5263 93.128C65.2063 93.128 65.0463 92.9893 65.0463 92.712C65.0463 92.4347 65.1743 92.2853 65.4303 92.264L66.3263 92.2C66.7529 92.1573 67.1049 92.0293 67.3823 91.816C67.6596 91.5813 67.7983 91.272 67.7983 90.888V79.176C67.7983 78.7493 67.7023 78.4613 67.5103 78.312C67.3396 78.1413 67.0516 78.056 66.6463 78.056H65.5583C65.2809 78.056 65.1423 77.9173 65.1423 77.64C65.1423 77.3627 65.2809 77.2027 65.5583 77.16L69.7183 76.648C70.1023 76.6053 70.2943 76.8507 70.2943 77.384V90.888C70.2943 91.656 70.7209 92.0933 71.5743 92.2L72.1183 92.264ZM67.6703 71.816C67.3929 71.5387 67.2543 71.1867 67.2543 70.76C67.2543 70.3333 67.3929 69.9813 67.6703 69.704C67.9689 69.4267 68.3316 69.288 68.7583 69.288C69.1849 69.288 69.5476 69.4267 69.8463 69.704C70.1449 69.9813 70.2943 70.3333 70.2943 70.76C70.2943 71.1867 70.1449 71.5387 69.8463 71.816C69.5476 72.0933 69.1849 72.232 68.7583 72.232C68.3316 72.232 67.9689 72.0933 67.6703 71.816ZM79.001 76.648C79.3423 76.648 79.513 76.8933 79.513 77.384V79.016C79.513 79.1227 79.545 79.176 79.609 79.176C79.6943 79.176 79.801 79.112 79.929 78.984C81.1663 77.4267 82.777 76.648 84.761 76.648C86.7663 76.648 88.3023 77.1813 89.369 78.248C90.4357 79.2933 90.969 80.808 90.969 82.792V90.888C90.969 91.272 91.1183 91.5813 91.417 91.816C91.737 92.0293 92.1103 92.1573 92.537 92.2L93.401 92.264C93.657 92.2853 93.785 92.4347 93.785 92.712C93.785 92.9893 93.625 93.128 93.305 93.128L89.881 93L86.969 93.128C86.649 93.128 86.489 92.9893 86.489 92.712C86.489 92.4347 86.617 92.2853 86.873 92.264L87.289 92.2C88.0783 92.072 88.473 91.6347 88.473 90.888V82.344C88.473 81.0213 88.0997 79.9973 87.353 79.272C86.6063 78.5467 85.5717 78.184 84.249 78.184C82.9477 78.184 81.8277 78.728 80.889 79.816C79.9717 80.8827 79.513 81.9387 79.513 82.984V90.888C79.513 91.656 79.9397 92.0933 80.793 92.2L81.337 92.264C81.593 92.2853 81.721 92.4347 81.721 92.712C81.721 92.9893 81.561 93.128 81.241 93.128L78.201 93L74.745 93.128C74.425 93.128 74.265 92.9893 74.265 92.712C74.265 92.4347 74.393 92.2853 74.649 92.264L75.545 92.2C75.9717 92.1573 76.3237 92.0293 76.601 91.816C76.8783 91.5813 77.017 91.272 77.017 90.888V79.176C77.017 78.7493 76.921 78.4613 76.729 78.312C76.5583 78.1413 76.2703 78.056 75.865 78.056H74.777C74.4997 78.056 74.361 77.9173 74.361 77.64C74.361 77.3627 74.4997 77.2027 74.777 77.16L78.937 76.648C78.9583 76.648 78.9797 76.648 79.001 76.648ZM99.4698 67.4C99.8111 67.4 99.9818 67.6453 99.9818 68.136V79.016C99.9818 79.1227 100.014 79.176 100.078 79.176C100.163 79.176 100.27 79.112 100.398 78.984C101.635 77.4267 103.246 76.648 105.23 76.648C107.235 76.648 108.771 77.1813 109.838 78.248C110.904 79.2933 111.438 80.808 111.438 82.792V90.888C111.438 91.272 111.576 91.5813 111.854 91.816C112.131 92.0293 112.483 92.1573 112.91 92.2L113.806 92.264C114.062 92.2853 114.19 92.4347 114.19 92.712C114.19 92.9893 114.03 93.128 113.71 93.128L110.254 93L107.374 93.128C107.054 93.128 106.894 92.9893 106.894 92.712C106.894 92.4347 107.022 92.2853 107.278 92.264L107.662 92.2C108.515 92.0507 108.942 91.6133 108.942 90.888V82.344C108.942 81.0213 108.568 79.9973 107.822 79.272C107.075 78.5467 106.04 78.184 104.718 78.184C103.416 78.184 102.296 78.728 101.358 79.816C100.44 80.8827 99.9818 81.9387 99.9818 82.984V90.888C99.9818 91.656 100.408 92.0933 101.262 92.2L101.742 92.264C101.998 92.2853 102.126 92.4347 102.126 92.712C102.126 92.9893 101.966 93.128 101.646 93.128L98.6698 93L95.2138 93.128C94.8938 93.128 94.7338 92.9893 94.7338 92.712C94.7338 92.4347 94.8618 92.2853 95.1178 92.264L96.0138 92.2C96.4404 92.1573 96.7924 92.0293 97.0698 91.816C97.3471 91.5813 97.4858 91.272 97.4858 90.888V69.928C97.4858 69.5013 97.3898 69.2133 97.1978 69.064C97.0271 68.8933 96.7391 68.808 96.3338 68.808H95.2458C94.9684 68.808 94.8298 68.6693 94.8298 68.392C94.8298 68.1147 94.9684 67.9547 95.2458 67.912L99.4058 67.4C99.4271 67.4 99.4484 67.4 99.4698 67.4ZM124.228 76.648C126.681 76.648 128.633 77.416 130.084 78.952C131.556 80.488 132.292 82.5147 132.292 85.032C132.292 87.528 131.567 89.544 130.116 91.08C128.665 92.5947 126.692 93.352 124.196 93.352C121.721 93.352 119.748 92.584 118.276 91.048C116.825 89.512 116.1 87.5067 116.1 85.032C116.1 82.5573 116.847 80.5413 118.34 78.984C119.833 77.4267 121.796 76.648 124.228 76.648ZM128.452 80.552C128.089 79.7413 127.545 79.1013 126.82 78.632C126.116 78.1413 125.252 77.896 124.228 77.896C122.457 77.896 121.135 78.4827 120.26 79.656C119.385 80.8293 118.948 82.3653 118.948 84.264C118.948 86.2267 119.289 87.9653 119.972 89.48C120.335 90.2693 120.868 90.9093 121.572 91.4C122.297 91.8693 123.151 92.104 124.132 92.104C125.945 92.104 127.279 91.5173 128.132 90.344C129.007 89.1707 129.444 87.6133 129.444 85.672C129.444 83.7307 129.113 82.024 128.452 80.552Z" fill="#FBFBFB"/>
</svg>
