<svg width="83" height="79" viewBox="0 0 83 79" fill="none" xmlns="http://www.w3.org/2000/svg">
<mask id="mask0_1_814" style="mask-type:alpha" maskUnits="userSpaceOnUse" x="0" y="0" width="83" height="79">
<path d="M1.5 39.5C1.5 18.5132 18.5132 1.5 39.5 1.5H43.5C64.4868 1.5 81.5 18.5132 81.5 39.5C81.5 60.4868 64.4868 77.5 43.5 77.5H39.5C18.5132 77.5 1.5 60.4868 1.5 39.5Z" fill="#D9D9D9" stroke="#FF9335" stroke-width="3"/>
</mask>
<g mask="url(#mask0_1_814)">
<path d="M106 39C106 74.3462 77.3462 103 42 103C6.65378 103 -22 74.3462 -22 39C-22 3.65378 6.65378 -25 42 -25C77.3462 -25 106 3.65378 106 39Z" fill="#FBFBFB"/>
<path d="M13.8292 96.4826C11.4755 95.3269 10.2986 94.7491 8.06177 91.4255C6.84181 89.6129 5.36032 83.6727 5.58621 81.4995C6.00039 77.5148 6.4886 76.8389 7.46503 75.4871C14.7622 65.3845 27.503 58.6923 42 58.6923C56.497 58.6923 69.2378 65.3845 76.535 75.487C77.5114 76.8389 77.9996 77.5148 78.4138 81.4995C78.6397 83.6727 77.1582 89.6129 75.9382 91.4255C73.7014 94.7491 72.5245 95.3269 70.1708 96.4826C61.6705 100.656 52.1089 103 42 103C31.8911 103 22.3295 100.656 13.8292 96.4826Z" fill="#FBFBFB"/>
<path d="M61.6923 30.3846C61.6923 41.487 52.6921 50.4872 41.5897 50.4872C30.4874 50.4872 21.4872 41.487 21.4872 30.3846C21.4872 19.2823 30.4874 10.2821 41.5897 10.2821C52.6921 10.2821 61.6923 19.2823 61.6923 30.3846Z" fill="#FBFBFB"/>
<path d="M105.5 39C105.5 61.8012 93.4824 81.7956 75.4356 92.9946C75.7256 92.6127 76.0292 92.1858 76.353 91.7047C76.6929 91.1997 77.0308 90.4422 77.3415 89.586C77.6553 88.7211 77.9527 87.7238 78.2033 86.7187C78.454 85.7136 78.6598 84.6935 78.7889 83.7825C78.9166 82.8807 78.974 82.0532 78.9111 81.4478C78.7031 79.4464 78.4729 78.233 78.1566 77.3391C77.8367 76.4352 77.4347 75.8788 76.9506 75.2086L76.9403 75.1943C69.5441 64.9546 56.6488 58.1923 42 58.1923C27.3512 58.1923 14.4559 64.9546 7.0597 75.1943L7.04939 75.2086C6.56528 75.8788 6.1633 76.4352 5.84342 77.3391C5.52708 78.233 5.29691 79.4464 5.08889 81.4478C5.02596 82.0532 5.08337 82.8807 5.21111 83.7825C5.34015 84.6935 5.54598 85.7136 5.79666 86.7187C6.04733 87.7238 6.34465 88.7211 6.65852 89.5861C6.96921 90.4422 7.30711 91.1997 7.64697 91.7047C7.97075 92.1858 8.27436 92.6127 8.5644 92.9946C-9.48237 81.7956 -21.5 61.8012 -21.5 39C-21.5 3.92992 6.92992 -24.5 42 -24.5C77.0701 -24.5 105.5 3.92992 105.5 39ZM72.7833 94.3787C72.3011 94.7701 71.8139 95.0734 71.2521 95.3758C64.9496 98.6527 58.0284 100.904 50.7097 101.908C47.8623 102.298 44.9547 102.5 42 102.5C39.8081 102.5 37.6422 102.389 35.5075 102.172C27.3683 101.346 19.6835 98.9819 12.7481 95.3759C12.1862 95.0734 11.699 94.7701 11.2167 94.3787C10.4025 93.7181 9.58115 92.7875 8.47657 91.1463C8.20645 90.745 7.90168 90.0803 7.59854 89.2449C7.29857 88.4183 7.01089 87.4549 6.76694 86.4767C6.52298 85.4986 6.32455 84.5129 6.20122 83.6422C6.07659 82.7624 6.03352 82.0324 6.08353 81.5512C6.28968 79.5678 6.51071 78.451 6.78613 77.6727C7.05573 76.9109 7.38264 76.455 7.87035 75.7798C15.0686 65.8143 27.6548 59.1923 42 59.1923C56.3452 59.1923 68.9314 65.8143 76.1296 75.7798C76.6173 76.455 76.9443 76.9109 77.2139 77.6727C77.4893 78.451 77.7103 79.5678 77.9165 81.5512C77.9665 82.0324 77.9234 82.7624 77.7988 83.6422C77.6754 84.5129 77.477 85.4986 77.2331 86.4767C76.9891 87.4549 76.7014 88.4183 76.4015 89.2449C76.0983 90.0803 75.7935 90.745 75.5234 91.1463C74.4188 92.7875 73.5975 93.7181 72.7833 94.3787ZM61.1923 30.3846C61.1923 41.2108 52.4159 49.9872 41.5897 49.9872C30.7635 49.9872 21.9872 41.2108 21.9872 30.3846C21.9872 19.5584 30.7635 10.7821 41.5897 10.7821C52.4159 10.7821 61.1923 19.5584 61.1923 30.3846ZM41.5897 50.9872C52.9682 50.9872 62.1923 41.7631 62.1923 30.3846C62.1923 19.0061 52.9682 9.78205 41.5897 9.78205C30.2113 9.78205 20.9872 19.0061 20.9872 30.3846C20.9872 41.7631 30.2113 50.9872 41.5897 50.9872Z" stroke="#FF9335"/>
</g>
</svg>
